<svg width="483" height="571" viewBox="0 0 483 571" fill="none" xmlns="http://www.w3.org/2000/svg">
<path d="M482.289 58.8768L478.021 47.3887C451.701 53.1328 423.959 33.7465 397.639 0.71801L295.206 104.83C295.206 60.3129 271.732 12.9242 225.495 0.71801L129.464 104.83C128.753 49.5427 110.969 11.4882 64.732 0L0 64.6209L4.97938 76.1091C32.0103 63.1849 47.6598 89.0333 47.6598 115.6V483.939L21.3402 512.659L94.6083 569.382L159.34 509.069L129.464 483.221V123.498L179.969 73.237C197.041 73.237 214.113 89.0333 214.113 115.6V312.334L187.794 341.055L261.062 397.778L325.794 337.465L295.918 311.616V125.652L346.423 75.3911L375.588 99.8034V199.607V316.643L340.021 348.235L281.691 404.24L175.701 499.017L188.505 508.351C197.753 501.171 199.175 494.709 211.268 494.709C253.948 494.709 292.361 542.098 323.66 570.818L376.299 526.302L457.392 462.399V186.683V99.0854C457.392 81.1352 470.196 64.6209 483 59.5949L482.289 58.8768ZM366.34 512.659C335.041 485.375 327.928 477.477 293.072 451.628C285.247 445.884 271.021 435.832 271.021 435.832C314.412 387.726 341.443 366.185 375.588 334.593V505.479L366.34 512.659Z" fill="#1E1E1E"/>
</svg>
